<svg width="40" height="40" viewBox="0 0 40 40" fill="none" xmlns="http://www.w3.org/2000/svg">
<path fill-rule="evenodd" clip-rule="evenodd" d="M2 20C2 29.9411 10.0589 38 20 38C29.9411 38 38 29.9411 38 20C38 10.0589 29.9411 2 20 2C10.0589 2 2 10.0589 2 20ZM20 0C8.95431 0 0 8.95431 0 20C0 31.0457 8.95431 40 20 40C31.0457 40 40 31.0457 40 20C40 8.95431 31.0457 0 20 0Z" fill="#FF3E79"/>
<path fill-rule="evenodd" clip-rule="evenodd" d="M21.5 20L17.7071 16.2071C17.3166 15.8166 17.3166 15.1834 17.7071 14.7929L17.7929 14.7071C18.1834 14.3166 18.8166 14.3166 19.2071 14.7071L23.7929 19.2929C24.1834 19.6834 24.1834 20.3166 23.7929 20.7071L19.2071 25.2929C18.8166 25.6834 18.1834 25.6834 17.7929 25.2929L17.7071 25.2071C17.3166 24.8166 17.3166 24.1834 17.7071 23.7929L21.5 20Z" fill="#FF3E79"/>
</svg>
